<svg id="Layer_1" data-name="Layer 1" xmlns="http://www.w3.org/2000/svg" width="2.8in" height="2.2in" viewBox="0 0 200.6 158.4"><title>cart-icon</title><path d="M172.5,118.7H56.7a7.2,7.2,0,0,1-7-5.4l-.6-2a.7.7,0,0,0-.1-.5L32,22.4,9.4,17.3A7.4,7.4,0,0,1,3.8,8.6a7.4,7.4,0,0,1,8.8-5.5L39.7,9.2a7,7,0,0,1,5.7,5.7l17.2,89.2H172.5a7.3,7.3,0,1,1,0,14.6Z" fill="#d5ada6"/><circle cx="67.6" cy="141.1" r="14.4" fill="#d5ada6"/><circle cx="161.3" cy="141.1" r="14.4" fill="#d5ada6"/><path d="M191.7,6.3H60.7a5.1,5.1,0,0,0-5.1,6.1L69.9,90.8A5.2,5.2,0,0,0,75,95H177.4a5.2,5.2,0,0,0,5.1-4.2l14.3-78.4A5.1,5.1,0,0,0,191.7,6.3ZM155.9,50.1l-5.9,6L126.2,79.8,102.4,56.1l-5.9-6a16.8,16.8,0,0,1,0-23.7h0a16.8,16.8,0,0,1,23.8,0l5.9,5.9,5.9-5.9a16.8,16.8,0,0,1,23.8,23.7Z" fill="#d5ada6"/></svg>