<svg xmlns="http://www.w3.org/2000/svg" width="2.8in" height="2.2in" viewBox="0 0 200.6 158.4"><path fill="#d5ada6" d="M172.5 118.7H56.7a7.2 7.2 0 0 1-7-5.4l-.6-2a.7.7 0 0 0-.1-.5L32 22.4 9.4 17.3a7.4 7.4 0 0 1-5.6-8.7 7.4 7.4 0 0 1 8.8-5.5l27.1 6.1a7 7 0 0 1 5.7 5.7l17.2 89.2h109.9a7.3 7.3 0 1 1 0 14.6z"/><circle cx="67.6" cy="141.1" r="14.4" fill="#d5ada6"/><circle cx="161.3" cy="141.1" r="14.4" fill="#d5ada6"/><path fill="#d5ada6" d="M191.7 6.3h-131a5.1 5.1 0 0 0-5.1 6.1l14.3 78.4A5.2 5.2 0 0 0 75 95h102.4a5.2 5.2 0 0 0 5.1-4.2l14.3-78.4a5.1 5.1 0 0 0-5.1-6.1zm-35.8 43.8l-5.9 6-23.8 23.7-23.8-23.7-5.9-6a16.8 16.8 0 0 1 0-23.7 16.8 16.8 0 0 1 23.8 0l5.9 5.9 5.9-5.9a16.8 16.8 0 0 1 23.8 23.7z"/></svg>