<svg xmlns="http://www.w3.org/2000/svg" id="Layer_1" viewBox="0 0 215.54 182.6" width="215.54" height="182.6"><defs><style>.cls-1{fill:#704142}</style></defs><path d="M155.07 29.35A26.22 26.22 0 0 1 173.76 37l2.7 2.7a26.55 26.55 0 0 1 0 37.37L160.57 93l-52.8 52.79L55 93 39.08 77.11a26.57 26.57 0 0 1 0-37.37L41.79 37a26.53 26.53 0 0 1 37.36 0L95 52.93l12.73 12.72 12.77-12.72L136.39 37a26.21 26.21 0 0 1 18.68-7.69m0-18a44.29 44.29 0 0 0-31.41 13L107.77 40.2 91.88 24.31a44.54 44.54 0 0 0-62.82 0L26.36 27a44.54 44.54 0 0 0 0 62.82l15.89 15.89 65.52 65.53 65.53-65.53 15.89-15.89a44.54 44.54 0 0 0 0-62.82l-2.7-2.7a44.3 44.3 0 0 0-31.42-13z" class="cls-1"/></svg>