<svg xmlns="http://www.w3.org/2000/svg"><symbol id="cart-icon" viewBox="0 0 200.6 158.4"><path fill="none" stroke="#d5ada6" stroke-linecap="round" stroke-linejoin="round" stroke-width="14.62" d="M11 10.2l27 6.1h.2l18 93.1.5 2h115.8"/><circle cx="67.6" cy="141.1" r="14.4" fill="#d5ada6"/><circle cx="161.3" cy="141.1" r="14.4" fill="#d5ada6"/><path fill="#d5ada6" d="M191.7 6.3h-131a5.1 5.1 0 0 0-5.1 6.1l14.3 78.4A5.2 5.2 0 0 0 75 95h102.4a5.2 5.2 0 0 0 5.1-4.2l14.3-78.4a5.1 5.1 0 0 0-5.1-6.1zm-35.8 43.8l-5.9 6-23.8 23.7-23.8-23.7-5.9-6a16.8 16.8 0 0 1 0-23.7 16.8 16.8 0 0 1 23.8 0l5.9 5.9 5.9-5.9a16.8 16.8 0 0 1 23.8 23.7z"/></symbol><symbol id="facebook-icon" viewBox="0 0 186.3 165.9"><path fill="#fff" d="M93.2 1.7A80.2 80.2 0 0 0 89 162v-62H68.1V75.8H89V57.9c0-20.7 12.7-32 31.1-32 8.9 0 16.5.7 18.7.9v21.7H126c-10 0-12 4.8-12 11.8v15.4h24l-3.1 24.3H114v59.3A80.2 80.2 0 0 0 93.2 1.7z"/></symbol><symbol id="close-icon" viewBox="0 0 129 129"><path fill="none" stroke="#d5ada6" stroke-linecap="round" stroke-miterlimit="10" stroke-width="27" d="M15.6 113.4l97.8-97.8m0 97.8L15.6 15.6"/></symbol><symbol id="hamburger-icon" viewBox="0 0 177.5 134"><path fill="none" stroke="#d5ada6" stroke-linecap="round" stroke-miterlimit="10" stroke-width="27" d="M19.6 67h138.3M19.6 18.1h138.3m0 97.8H19.6"/></symbol><symbol id="pinterest-icon" viewBox="0 0 186.3 165.9"><path fill="#fff" d="M87.6 2.5a80.2 80.2 0 1 0 80.2 80.2A80.2 80.2 0 0 0 87.6 2.5zm.1 136.4a53.4 53.4 0 0 1-16.6-2.5c2.3-3.7 5.7-9.8 7-14.7l3.5-13.3c1.8 3.5 7.1 6.4 12.8 6.4 17 0 29.2-15.6 29.2-34.9s-15.2-32.5-34.7-32.5c-24.2 0-37.1 16.3-37.1 34 0 8.2 4.4 18.5 11.4 21.8 1.1.5 1.7.2 1.9-.8s1.1-4.6 1.6-6.4a2 2 0 0 0-.4-1.6 21.7 21.7 0 0 1-4.2-12.8c0-12.4 9.4-24.3 25.3-24.3 13.8 0 23.5 9.4 23.5 22.8 0 15.2-7.7 25.7-17.6 25.7-5.5 0-9.7-4.5-8.4-10.1s4.7-13.9 4.7-18.7-2.3-7.9-7.1-7.9-10.2 5.8-10.2 13.6a20.4 20.4 0 0 0 1.7 8.4s-5.5 23.5-6.6 27.9-.6 11.6-.1 16.1a56.3 56.3 0 1 1 20.4 3.8z"/></symbol><symbol id="instagram-icon" viewBox="0 0 186.3 165.9"><circle cx="93.2" cy="82.7" r="18.3" fill="#fff" transform="rotate(-13.3 92.96 82.562)"/><path fill="#fff" d="M135.8 50.4a17.6 17.6 0 0 0-4.1-6.3 17.2 17.2 0 0 0-6.2-4.1 34.3 34.3 0 0 0-10.2-1.9c-5.8-.2-7.5-.3-22.1-.3s-16.4.1-22.2.3A32.7 32.7 0 0 0 60.9 40a16.8 16.8 0 0 0-6.3 4.1 17.6 17.6 0 0 0-4.1 6.3c-.8 1.9-1.7 4.8-1.9 10.2s-.3 7.5-.3 22.1 0 16.4.3 22.1 1.1 8.3 1.9 10.2a18.2 18.2 0 0 0 10.4 10.4 32.7 32.7 0 0 0 10.1 1.9c5.8.3 7.5.3 22.2.3s16.3-.1 22.1-.3a34.3 34.3 0 0 0 10.2-1.9 17.2 17.2 0 0 0 6.2-4.1 16.8 16.8 0 0 0 4.1-6.3c.8-1.9 1.7-4.8 1.9-10.2s.3-7.5.3-22.1 0-16.3-.3-22.1-1.1-8.3-1.9-10.2zm-42.6 60.4a28.1 28.1 0 1 1 28.1-28.1 28.1 28.1 0 0 1-28.1 28.1zm29.2-50.7a6.6 6.6 0 1 1 6.6-6.6 6.7 6.7 0 0 1-6.6 6.6z"/><path fill="#fff" d="M93.2 2.5a80.2 80.2 0 1 0 80.2 80.2A80.3 80.3 0 0 0 93.2 2.5zm54.4 102.8a40 40 0 0 1-2.6 13.3 26.6 26.6 0 0 1-6.3 9.7 27 27 0 0 1-9.7 6.3 37.4 37.4 0 0 1-13.3 2.5c-5.8.3-7.7.4-22.5.4s-16.8-.1-22.6-.4a40.3 40.3 0 0 1-13.3-2.5 27 27 0 0 1-9.7-6.3 27.9 27.9 0 0 1-6.3-9.7 40 40 0 0 1-2.6-13.3c-.2-5.8-.3-7.7-.3-22.6s.1-16.7.3-22.5a39 39 0 0 1 2.6-13.3 26.2 26.2 0 0 1 6.3-9.7 26 26 0 0 1 9.7-6.4 43.1 43.1 0 0 1 13.3-2.5c5.8-.3 7.7-.3 22.6-.3s16.7 0 22.5.3a42.5 42.5 0 0 1 13.3 2.5 26 26 0 0 1 9.7 6.4 25.4 25.4 0 0 1 6.3 9.6 40 40 0 0 1 2.6 13.3c.3 5.9.3 7.7.3 22.6s0 16.7-.3 22.6z"/></symbol><symbol id="rating-four-icon" viewBox="0 0 130.7 18.7"><path fill="#d5ada6" d="M25.6 2.7l-.3-.3a4.6 4.6 0 0 0-6.5 0L17.2 4l-1.7-1.6a4.6 4.6 0 0 0-6.5 0l-.3.3a4.6 4.6 0 0 0 0 6.5l1.7 1.7 6.8 6.8 6.8-6.8 1.6-1.7a4.6 4.6 0 0 0 0-6.5zm24.1 0l-.3-.3a4.6 4.6 0 0 0-6.5 0L41.3 4l-1.7-1.6a4.6 4.6 0 0 0-6.5 0l-.3.3a4.6 4.6 0 0 0 0 6.5l1.7 1.7 6.8 6.8 6.8-6.8 1.6-1.7a4.6 4.6 0 0 0 0-6.5zm24.1 0l-.3-.3a4.6 4.6 0 0 0-6.5 0L65.4 4l-1.7-1.6a4.6 4.6 0 0 0-6.5 0l-.3.3a4.6 4.6 0 0 0 0 6.5l1.7 1.7 6.8 6.8 6.8-6.8 1.6-1.7a4.6 4.6 0 0 0 0-6.5zm24.1 0l-.2-.3a4.7 4.7 0 0 0-6.6 0L89.5 4l-1.7-1.6a4.6 4.6 0 0 0-6.5 0l-.3.3a4.6 4.6 0 0 0 0 6.5l1.7 1.7 6.8 6.8 6.8-6.8 1.6-1.7a4.6 4.6 0 0 0 0-6.5z"/><path fill="none" stroke="#d5ada6" stroke-miterlimit="10" d="M122 2.7l-.2-.3a4.7 4.7 0 0 0-6.6 0L113.6 4l-1.7-1.6a4.6 4.6 0 0 0-6.5 0l-.3.3a4.6 4.6 0 0 0 0 6.5l1.7 1.7 6.8 6.8 6.8-6.8 1.6-1.7a4.6 4.6 0 0 0 0-6.5z"/></symbol><symbol id="rating-five-icon" viewBox="0 0 130.7 18.7"><path fill="#d5ada6" d="M25.6 2.7l-.3-.3a4.6 4.6 0 0 0-6.5 0L17.2 4l-1.7-1.6a4.6 4.6 0 0 0-6.5 0l-.3.3a4.6 4.6 0 0 0 0 6.5l1.7 1.7 6.8 6.8 6.8-6.8 1.6-1.7a4.6 4.6 0 0 0 0-6.5zm24.1 0l-.3-.3a4.6 4.6 0 0 0-6.5 0L41.3 4l-1.7-1.6a4.6 4.6 0 0 0-6.5 0l-.3.3a4.6 4.6 0 0 0 0 6.5l1.7 1.7 6.8 6.8 6.8-6.8 1.6-1.7a4.6 4.6 0 0 0 0-6.5zm24.1 0l-.3-.3a4.6 4.6 0 0 0-6.5 0L65.4 4l-1.7-1.6a4.6 4.6 0 0 0-6.5 0l-.3.3a4.6 4.6 0 0 0 0 6.5l1.7 1.7 6.8 6.8 6.8-6.8 1.6-1.7a4.6 4.6 0 0 0 0-6.5zm24.1 0l-.2-.3a4.7 4.7 0 0 0-6.6 0L89.5 4l-1.7-1.6a4.6 4.6 0 0 0-6.5 0l-.3.3a4.6 4.6 0 0 0 0 6.5l1.7 1.7 6.8 6.8 6.8-6.8 1.6-1.7a4.6 4.6 0 0 0 0-6.5zm24.1 0l-.2-.3a4.7 4.7 0 0 0-6.6 0L113.6 4l-1.7-1.6a4.6 4.6 0 0 0-6.5 0l-.3.3a4.6 4.6 0 0 0 0 6.5l1.7 1.7 6.8 6.8 6.8-6.8 1.6-1.7a4.6 4.6 0 0 0 0-6.5z"/><path fill="#d5ada6" d="M25.6 2.7l-.3-.3a4.6 4.6 0 0 0-6.5 0L17.2 4l-1.7-1.6a4.6 4.6 0 0 0-6.5 0l-.3.3a4.6 4.6 0 0 0 0 6.5l1.7 1.7 6.8 6.8 6.8-6.8 1.6-1.7a4.6 4.6 0 0 0 0-6.5zm24.1 0l-.3-.3a4.6 4.6 0 0 0-6.5 0L41.3 4l-1.7-1.6a4.6 4.6 0 0 0-6.5 0l-.3.3a4.6 4.6 0 0 0 0 6.5l1.7 1.7 6.8 6.8 6.8-6.8 1.6-1.7a4.6 4.6 0 0 0 0-6.5zm24.1 0l-.3-.3a4.6 4.6 0 0 0-6.5 0L65.4 4l-1.7-1.6a4.6 4.6 0 0 0-6.5 0l-.3.3a4.6 4.6 0 0 0 0 6.5l1.7 1.7 6.8 6.8 6.8-6.8 1.6-1.7a4.6 4.6 0 0 0 0-6.5zm24.1 0l-.2-.3a4.7 4.7 0 0 0-6.6 0L89.5 4l-1.7-1.6a4.6 4.6 0 0 0-6.5 0l-.3.3a4.6 4.6 0 0 0 0 6.5l1.7 1.7 6.8 6.8 6.8-6.8 1.6-1.7a4.6 4.6 0 0 0 0-6.5zm24.1 0l-.2-.3a4.7 4.7 0 0 0-6.6 0L113.6 4l-1.7-1.6a4.6 4.6 0 0 0-6.5 0l-.3.3a4.6 4.6 0 0 0 0 6.5l1.7 1.7 6.8 6.8 6.8-6.8 1.6-1.7a4.6 4.6 0 0 0 0-6.5z"/></symbol><symbol id="rating-one-icon" viewBox="0 0 130.7 18.7"><path fill="#d5ada6" d="M25.6 2.7l-.3-.3a4.6 4.6 0 0 0-6.5 0L17.2 4l-1.7-1.6a4.6 4.6 0 0 0-6.5 0l-.3.3a4.6 4.6 0 0 0 0 6.5l1.7 1.7 6.8 6.8 6.8-6.8 1.6-1.7a4.6 4.6 0 0 0 0-6.5z"/><path fill="none" stroke="#d5ada6" stroke-miterlimit="10" d="M49.7 2.7l-.3-.3a4.6 4.6 0 0 0-6.5 0L41.3 4l-1.7-1.6a4.6 4.6 0 0 0-6.5 0l-.3.3a4.6 4.6 0 0 0 0 6.5l1.7 1.7 6.8 6.8 6.8-6.8 1.6-1.7a4.6 4.6 0 0 0 0-6.5zm24.1 0l-.3-.3a4.6 4.6 0 0 0-6.5 0L65.4 4l-1.7-1.6a4.6 4.6 0 0 0-6.5 0l-.3.3a4.6 4.6 0 0 0 0 6.5l1.7 1.7 6.8 6.8 6.8-6.8 1.6-1.7a4.6 4.6 0 0 0 0-6.5zm24.1 0l-.2-.3a4.7 4.7 0 0 0-6.6 0L89.5 4l-1.7-1.6a4.6 4.6 0 0 0-6.5 0l-.3.3a4.6 4.6 0 0 0 0 6.5l1.7 1.7 6.8 6.8 6.8-6.8 1.6-1.7a4.6 4.6 0 0 0 0-6.5zm24.1 0l-.2-.3a4.7 4.7 0 0 0-6.6 0L113.6 4l-1.7-1.6a4.6 4.6 0 0 0-6.5 0l-.3.3a4.6 4.6 0 0 0 0 6.5l1.7 1.7 6.8 6.8 6.8-6.8 1.6-1.7a4.6 4.6 0 0 0 0-6.5z"/><path fill="#d5ada6" d="M25.6 2.7l-.3-.3a4.6 4.6 0 0 0-6.5 0L17.2 4l-1.7-1.6a4.6 4.6 0 0 0-6.5 0l-.3.3a4.6 4.6 0 0 0 0 6.5l1.7 1.7 6.8 6.8 6.8-6.8 1.6-1.7a4.6 4.6 0 0 0 0-6.5z"/><path fill="none" stroke="#d5ada6" stroke-miterlimit="10" d="M49.7 2.7l-.3-.3a4.6 4.6 0 0 0-6.5 0L41.3 4l-1.7-1.6a4.6 4.6 0 0 0-6.5 0l-.3.3a4.6 4.6 0 0 0 0 6.5l1.7 1.7 6.8 6.8 6.8-6.8 1.6-1.7a4.6 4.6 0 0 0 0-6.5zm24.1 0l-.3-.3a4.6 4.6 0 0 0-6.5 0L65.4 4l-1.7-1.6a4.6 4.6 0 0 0-6.5 0l-.3.3a4.6 4.6 0 0 0 0 6.5l1.7 1.7 6.8 6.8 6.8-6.8 1.6-1.7a4.6 4.6 0 0 0 0-6.5zm24.1 0l-.2-.3a4.7 4.7 0 0 0-6.6 0L89.5 4l-1.7-1.6a4.6 4.6 0 0 0-6.5 0l-.3.3a4.6 4.6 0 0 0 0 6.5l1.7 1.7 6.8 6.8 6.8-6.8 1.6-1.7a4.6 4.6 0 0 0 0-6.5zm24.1 0l-.2-.3a4.7 4.7 0 0 0-6.6 0L113.6 4l-1.7-1.6a4.6 4.6 0 0 0-6.5 0l-.3.3a4.6 4.6 0 0 0 0 6.5l1.7 1.7 6.8 6.8 6.8-6.8 1.6-1.7a4.6 4.6 0 0 0 0-6.5z"/></symbol><symbol id="rating-three-icon" viewBox="0 0 130.7 18.7"><path fill="#d5ada6" d="M25.6 2.7l-.3-.3a4.6 4.6 0 0 0-6.5 0L17.2 4l-1.7-1.6a4.6 4.6 0 0 0-6.5 0l-.3.3a4.6 4.6 0 0 0 0 6.5l1.7 1.7 6.8 6.8 6.8-6.8 1.6-1.7a4.6 4.6 0 0 0 0-6.5zm24.1 0l-.3-.3a4.6 4.6 0 0 0-6.5 0L41.3 4l-1.7-1.6a4.6 4.6 0 0 0-6.5 0l-.3.3a4.6 4.6 0 0 0 0 6.5l1.7 1.7 6.8 6.8 6.8-6.8 1.6-1.7a4.6 4.6 0 0 0 0-6.5zm24.1 0l-.3-.3a4.6 4.6 0 0 0-6.5 0L65.4 4l-1.7-1.6a4.6 4.6 0 0 0-6.5 0l-.3.3a4.6 4.6 0 0 0 0 6.5l1.7 1.7 6.8 6.8 6.8-6.8 1.6-1.7a4.6 4.6 0 0 0 0-6.5z"/><path fill="none" stroke="#d5ada6" stroke-miterlimit="10" d="M97.9 2.7l-.2-.3a4.7 4.7 0 0 0-6.6 0L89.5 4l-1.7-1.6a4.6 4.6 0 0 0-6.5 0l-.3.3a4.6 4.6 0 0 0 0 6.5l1.7 1.7 6.8 6.8 6.8-6.8 1.6-1.7a4.6 4.6 0 0 0 0-6.5zm24.1 0l-.2-.3a4.7 4.7 0 0 0-6.6 0L113.6 4l-1.7-1.6a4.6 4.6 0 0 0-6.5 0l-.3.3a4.6 4.6 0 0 0 0 6.5l1.7 1.7 6.8 6.8 6.8-6.8 1.6-1.7a4.6 4.6 0 0 0 0-6.5z"/><path fill="#d5ada6" d="M25.6 2.7l-.3-.3a4.6 4.6 0 0 0-6.5 0L17.2 4l-1.7-1.6a4.6 4.6 0 0 0-6.5 0l-.3.3a4.6 4.6 0 0 0 0 6.5l1.7 1.7 6.8 6.8 6.8-6.8 1.6-1.7a4.6 4.6 0 0 0 0-6.5zm24.1 0l-.3-.3a4.6 4.6 0 0 0-6.5 0L41.3 4l-1.7-1.6a4.6 4.6 0 0 0-6.5 0l-.3.3a4.6 4.6 0 0 0 0 6.5l1.7 1.7 6.8 6.8 6.8-6.8 1.6-1.7a4.6 4.6 0 0 0 0-6.5zm24.1 0l-.3-.3a4.6 4.6 0 0 0-6.5 0L65.4 4l-1.7-1.6a4.6 4.6 0 0 0-6.5 0l-.3.3a4.6 4.6 0 0 0 0 6.5l1.7 1.7 6.8 6.8 6.8-6.8 1.6-1.7a4.6 4.6 0 0 0 0-6.5z"/><path fill="none" stroke="#d5ada6" stroke-miterlimit="10" d="M97.9 2.7l-.2-.3a4.7 4.7 0 0 0-6.6 0L89.5 4l-1.7-1.6a4.6 4.6 0 0 0-6.5 0l-.3.3a4.6 4.6 0 0 0 0 6.5l1.7 1.7 6.8 6.8 6.8-6.8 1.6-1.7a4.6 4.6 0 0 0 0-6.5zm24.1 0l-.2-.3a4.7 4.7 0 0 0-6.6 0L113.6 4l-1.7-1.6a4.6 4.6 0 0 0-6.5 0l-.3.3a4.6 4.6 0 0 0 0 6.5l1.7 1.7 6.8 6.8 6.8-6.8 1.6-1.7a4.6 4.6 0 0 0 0-6.5z"/></symbol><symbol id="rating-zero-icon" viewBox="0 0 130.7 18.7"><path fill="none" stroke="#d5ada6" stroke-miterlimit="10" d="M25.6 2.7l-.3-.3a4.6 4.6 0 0 0-6.5 0L17.2 4l-1.7-1.6a4.6 4.6 0 0 0-6.5 0l-.3.3a4.6 4.6 0 0 0 0 6.5l1.7 1.7 6.8 6.8 6.8-6.8 1.6-1.7a4.6 4.6 0 0 0 0-6.5zm24.1 0l-.3-.3a4.6 4.6 0 0 0-6.5 0L41.3 4l-1.7-1.6a4.6 4.6 0 0 0-6.5 0l-.3.3a4.6 4.6 0 0 0 0 6.5l1.7 1.7 6.8 6.8 6.8-6.8 1.6-1.7a4.6 4.6 0 0 0 0-6.5zm24.1 0l-.3-.3a4.6 4.6 0 0 0-6.5 0L65.4 4l-1.7-1.6a4.6 4.6 0 0 0-6.5 0l-.3.3a4.6 4.6 0 0 0 0 6.5l1.7 1.7 6.8 6.8 6.8-6.8 1.6-1.7a4.6 4.6 0 0 0 0-6.5zm24.1 0l-.2-.3a4.7 4.7 0 0 0-6.6 0L89.5 4l-1.7-1.6a4.6 4.6 0 0 0-6.5 0l-.3.3a4.6 4.6 0 0 0 0 6.5l1.7 1.7 6.8 6.8 6.8-6.8 1.6-1.7a4.6 4.6 0 0 0 0-6.5zm24.1 0l-.2-.3a4.7 4.7 0 0 0-6.6 0L113.6 4l-1.7-1.6a4.6 4.6 0 0 0-6.5 0l-.3.3a4.6 4.6 0 0 0 0 6.5l1.7 1.7 6.8 6.8 6.8-6.8 1.6-1.7a4.6 4.6 0 0 0 0-6.5z"/><path fill="none" stroke="#d5ada6" stroke-miterlimit="10" d="M25.6 2.7l-.3-.3a4.6 4.6 0 0 0-6.5 0L17.2 4l-1.7-1.6a4.6 4.6 0 0 0-6.5 0l-.3.3a4.6 4.6 0 0 0 0 6.5l1.7 1.7 6.8 6.8 6.8-6.8 1.6-1.7a4.6 4.6 0 0 0 0-6.5zm24.1 0l-.3-.3a4.6 4.6 0 0 0-6.5 0L41.3 4l-1.7-1.6a4.6 4.6 0 0 0-6.5 0l-.3.3a4.6 4.6 0 0 0 0 6.5l1.7 1.7 6.8 6.8 6.8-6.8 1.6-1.7a4.6 4.6 0 0 0 0-6.5zm24.1 0l-.3-.3a4.6 4.6 0 0 0-6.5 0L65.4 4l-1.7-1.6a4.6 4.6 0 0 0-6.5 0l-.3.3a4.6 4.6 0 0 0 0 6.5l1.7 1.7 6.8 6.8 6.8-6.8 1.6-1.7a4.6 4.6 0 0 0 0-6.5zm24.1 0l-.2-.3a4.7 4.7 0 0 0-6.6 0L89.5 4l-1.7-1.6a4.6 4.6 0 0 0-6.5 0l-.3.3a4.6 4.6 0 0 0 0 6.5l1.7 1.7 6.8 6.8 6.8-6.8 1.6-1.7a4.6 4.6 0 0 0 0-6.5zm24.1 0l-.2-.3a4.7 4.7 0 0 0-6.6 0L113.6 4l-1.7-1.6a4.6 4.6 0 0 0-6.5 0l-.3.3a4.6 4.6 0 0 0 0 6.5l1.7 1.7 6.8 6.8 6.8-6.8 1.6-1.7a4.6 4.6 0 0 0 0-6.5z"/></symbol><symbol id="rating-two-icon" viewBox="0 0 130.7 18.7"><path fill="#d5ada6" d="M25.6 2.7l-.3-.3a4.6 4.6 0 0 0-6.5 0L17.2 4l-1.7-1.6a4.6 4.6 0 0 0-6.5 0l-.3.3a4.6 4.6 0 0 0 0 6.5l1.7 1.7 6.8 6.8 6.8-6.8 1.6-1.7a4.6 4.6 0 0 0 0-6.5zm24.1 0l-.3-.3a4.6 4.6 0 0 0-6.5 0L41.3 4l-1.7-1.6a4.6 4.6 0 0 0-6.5 0l-.3.3a4.6 4.6 0 0 0 0 6.5l1.7 1.7 6.8 6.8 6.8-6.8 1.6-1.7a4.6 4.6 0 0 0 0-6.5z"/><path fill="none" stroke="#d5ada6" stroke-miterlimit="10" d="M73.8 2.7l-.3-.3a4.6 4.6 0 0 0-6.5 0L65.4 4l-1.7-1.6a4.6 4.6 0 0 0-6.5 0l-.3.3a4.6 4.6 0 0 0 0 6.5l1.7 1.7 6.8 6.8 6.8-6.8 1.6-1.7a4.6 4.6 0 0 0 0-6.5zm24.1 0l-.2-.3a4.7 4.7 0 0 0-6.6 0L89.5 4l-1.7-1.6a4.6 4.6 0 0 0-6.5 0l-.3.3a4.6 4.6 0 0 0 0 6.5l1.7 1.7 6.8 6.8 6.8-6.8 1.6-1.7a4.6 4.6 0 0 0 0-6.5zm24.1 0l-.2-.3a4.7 4.7 0 0 0-6.6 0L113.6 4l-1.7-1.6a4.6 4.6 0 0 0-6.5 0l-.3.3a4.6 4.6 0 0 0 0 6.5l1.7 1.7 6.8 6.8 6.8-6.8 1.6-1.7a4.6 4.6 0 0 0 0-6.5z"/></symbol><symbol id="search-icon" viewBox="0 0 171.5 149.9"><path fill="none" stroke="#d5ada6" stroke-linecap="round" stroke-miterlimit="10" stroke-width="27" d="M126.9 111.2l27.3 15.7"/><path fill="#d5ada6" d="M75.4 3.3A71.7 71.7 0 1 0 147.1 75 71.7 71.7 0 0 0 75.4 3.3zm29.3 73.5l-5.4 5.3L75.4 106 51.5 82.1l-5.3-5.3a16.9 16.9 0 0 1 0-23.9 16.9 16.9 0 0 1 23.9 0l5.3 5.3 5.4-5.3a16.9 16.9 0 0 1 23.9 0 16.9 16.9 0 0 1 0 23.9z"/></symbol><symbol id="twitter-icon" viewBox="0 0 186.3 165.9"><path fill="#fff" d="M93.2 2.7a80.2 80.2 0 1 0 80.2 80.2A80.3 80.3 0 0 0 93.2 2.7zM133 62.5a23.5 23.5 0 0 1 .1 2.6c0 27.2-20.7 58.6-58.6 58.6a57.4 57.4 0 0 1-31.4-9.3 39.1 39.1 0 0 0 4.9.3 41.5 41.5 0 0 0 25.5-8.8 20.6 20.6 0 0 1-19.2-14.3 20.9 20.9 0 0 0 9.3-.3 20.7 20.7 0 0 1-16.5-20.2v-.3a20 20 0 0 0 9.3 2.6A20.7 20.7 0 0 1 50 45.9a58.3 58.3 0 0 0 42.4 21.5 20.6 20.6 0 0 1 35.1-18.7 40.3 40.3 0 0 0 13-5 20.4 20.4 0 0 1-9 11.4 40.7 40.7 0 0 0 11.8-3.3A42 42 0 0 1 133 62.5z"/></symbol></svg>