<svg xmlns="http://www.w3.org/2000/svg"><symbol id="cart-icon" viewBox="0 0 200.57 158.4"><defs><style>.cls-1{fill:#704142}</style></defs><path d="M172.5 118.7H56.74a7.3 7.3 0 0 1-7.06-5.44l-.53-2c0-.16-.08-.32-.11-.48L32 22.42 9.37 17.34a7.31 7.31 0 1 1 3.21-14.27l27.09 6.09a7.3 7.3 0 0 1 5.75 5.78l17.22 89.14H172.5a7.31 7.31 0 1 1 0 14.62z" class="cls-1"/><circle cx="67.57" cy="141.07" r="14.44" class="cls-1"/><circle cx="161.35" cy="141.07" r="14.44" class="cls-1"/><path d="M191.72 6.28h-131a5.18 5.18 0 0 0-5.1 6.12l14.3 78.35A5.18 5.18 0 0 0 75 95h102.43a5.19 5.19 0 0 0 5.1-4.26l14.3-78.35a5.19 5.19 0 0 0-5.11-6.11zm-35.81 43.84l-5.94 6-23.77 23.71-23.76-23.76-6-6a16.86 16.86 0 0 1 0-23.76 16.85 16.85 0 0 1 23.77 0l5.94 5.94 5.94-5.94a16.8 16.8 0 0 1 23.77 23.76z" class="cls-1"/></symbol><symbol id="facebook-icon" viewBox="0 0 186.32 165.85"><defs><style>.cls-1{fill:#fff}</style></defs><path d="M93.16 1.66A80.21 80.21 0 0 0 89 162v-62H68.1V75.76H89V57.91c0-20.73 12.66-32 31.14-32a173.13 173.13 0 0 1 18.69 1v21.58H126c-10.06 0-12 4.78-12 11.79v15.46h24L134.87 100H114v59.38A80.21 80.21 0 0 0 93.16 1.66z" class="cls-1"/></symbol><symbol id="heart-full" viewBox="0 0 215.54 182.6"><defs><style>.cls-1{fill:#704142}</style></defs><path d="M190.21 27.21l-2.74-2.74a45.12 45.12 0 0 0-63.61 0l-16.09 16.09-16.09-16.09a45.12 45.12 0 0 0-63.61 0l-2.73 2.74a45.12 45.12 0 0 0 0 63.61l16.09 16.08 66.34 66.35 66.35-66.35 16.09-16.08a45.12 45.12 0 0 0 0-63.61z" class="cls-1"/></symbol><symbol id="heart-empty" viewBox="0 0 215.54 182.6"><defs><style>.cls-1{fill:#704142}</style></defs><path d="M155.07 29.35A26.22 26.22 0 0 1 173.76 37l2.7 2.7a26.55 26.55 0 0 1 0 37.37L160.57 93l-52.8 52.79L55 93 39.08 77.11a26.57 26.57 0 0 1 0-37.37L41.79 37a26.53 26.53 0 0 1 37.36 0L95 52.93l12.73 12.72 12.77-12.72L136.39 37a26.21 26.21 0 0 1 18.68-7.69m0-18a44.29 44.29 0 0 0-31.41 13L107.77 40.2 91.88 24.31a44.54 44.54 0 0 0-62.82 0L26.36 27a44.54 44.54 0 0 0 0 62.82l15.89 15.89 65.52 65.53 65.53-65.53 15.89-15.89a44.54 44.54 0 0 0 0-62.82l-2.7-2.7a44.3 44.3 0 0 0-31.42-13z" class="cls-1"/></symbol><symbol id="close-icon" viewBox="0 0 128.97 128.97"><defs><style>.cls-1{fill:#704142}</style></defs><path d="M15.58 126.89a13.5 13.5 0 0 1-9.55-23L103.85 6a13.5 13.5 0 0 1 19.09 19.1l-97.82 97.84a13.42 13.42 0 0 1-9.54 3.95z" class="cls-1"/><path d="M113.39 126.89a13.42 13.42 0 0 1-9.54-4L6 25.13A13.5 13.5 0 1 1 25.12 6l97.82 97.82a13.5 13.5 0 0 1-9.55 23z" class="cls-1"/></symbol><symbol id="hamburger-icon" viewBox="0 0 177.5 134"><defs><style>.cls-1{fill:#704142}</style></defs><path d="M157.92 80.5H19.58a13.5 13.5 0 0 1 0-27h138.34a13.5 13.5 0 0 1 0 27zm0-48.91H19.58a13.5 13.5 0 0 1 0-27h138.34a13.5 13.5 0 0 1 0 27zm0 97.82H19.58a13.5 13.5 0 1 1 0-27h138.34a13.5 13.5 0 0 1 0 27z" class="cls-1"/></symbol><symbol id="instagram-icon" viewBox="0 0 186.32 165.85"><defs><style>.cls-1{fill:#fff}</style></defs><circle cx="93.16" cy="82.71" r="18.26" class="cls-1" transform="rotate(-13.28 93.195 82.722)"/><path d="M135.83 50.42A18.09 18.09 0 0 0 125.45 40a30.12 30.12 0 0 0-10.17-1.89c-5.78-.27-7.51-.32-22.12-.32s-16.35.05-22.12.32A30.32 30.32 0 0 0 60.87 40a18.09 18.09 0 0 0-10.38 10.42 29.86 29.86 0 0 0-1.9 10.17c-.27 5.78-.32 7.51-.32 22.12s.07 16.35.32 22.13a30.37 30.37 0 0 0 1.9 10.16 16.84 16.84 0 0 0 4.09 6.28 17 17 0 0 0 6.29 4.1 30.07 30.07 0 0 0 10.13 1.9c5.77.27 7.5.32 22.12.32s16.34-.07 22.12-.32a30.65 30.65 0 0 0 10.17-1.89 17.11 17.11 0 0 0 6.29-4.1 16.84 16.84 0 0 0 4.09-6.28 30.18 30.18 0 0 0 1.89-10.17c.28-5.78.32-7.51.32-22.13s-.06-16.34-.32-22.12a30.44 30.44 0 0 0-1.85-10.17zm-42.67 60.42a28.13 28.13 0 1 1 28.12-28.13 28.13 28.13 0 0 1-28.12 28.13zm29.23-50.78a6.58 6.58 0 1 1 6.61-6.58 6.57 6.57 0 0 1-6.61 6.58z" class="cls-1"/><path d="M93.16 2.5a80.21 80.21 0 1 0 80.21 80.21A80.22 80.22 0 0 0 93.16 2.5zm54.43 102.77a40.35 40.35 0 0 1-2.55 13.3 28.08 28.08 0 0 1-16 16 39.93 39.93 0 0 1-13.29 2.55c-5.84.28-7.7.34-22.58.34s-16.73-.06-22.57-.34a40.4 40.4 0 0 1-13.3-2.55 26.89 26.89 0 0 1-9.7-6.32 26.61 26.61 0 0 1-6.32-9.67 40.05 40.05 0 0 1-2.55-13.3c-.28-5.84-.34-7.7-.34-22.57s.06-16.73.34-22.57a40.35 40.35 0 0 1 2.55-13.3 26.93 26.93 0 0 1 6.32-9.71 26.46 26.46 0 0 1 9.69-6.3 40.26 40.26 0 0 1 13.3-2.55c5.84-.28 7.7-.28 22.57-.28s16.73.07 22.55.32A40.87 40.87 0 0 1 129 30.83a28.06 28.06 0 0 1 16 16 40.2 40.2 0 0 1 2.55 13.3c.27 5.84.34 7.7.34 22.57s-.03 16.73-.3 22.57z" class="cls-1"/></symbol><symbol id="pinterest-icon" viewBox="0 0 186.32 165.85"><defs><style>.cls-1{fill:#fff}</style></defs><path d="M87.62 2.5a80.21 80.21 0 1 0 80.21 80.21A80.22 80.22 0 0 0 87.62 2.5zm.08 136.44a56.28 56.28 0 0 1-16.62-2.5c2.3-3.74 5.72-9.85 7-14.73l3.5-13.35c1.83 3.5 7.17 6.45 12.87 6.45 16.94 0 29.13-15.57 29.13-34.95 0-18.55-15.15-32.42-34.62-32.42-24.24 0-37.11 16.26-37.11 34 0 8.23 4.38 18.5 11.39 21.76 1.06.49 1.64.27 1.88-.76.18-.78 1.12-4.59 1.56-6.37a1.63 1.63 0 0 0-.39-1.6c-2.31-2.82-4.17-8-4.17-12.82 0-12.38 9.37-24.37 25.35-24.37 13.79 0 23.45 9.41 23.45 22.85 0 15.19-7.67 25.71-17.65 25.71-5.5 0-9.62-4.55-8.31-10.13C86.53 89 89.6 81.8 89.6 77c0-4.32-2.31-7.91-7.11-7.91-5.63 0-10.15 5.82-10.15 13.63A20.33 20.33 0 0 0 74 91.06s-5.53 23.53-6.56 27.94c-1.12 4.84-.69 11.68-.19 16.12a56.16 56.16 0 1 1 20.45 3.85z" class="cls-1"/></symbol><symbol id="search-icon" viewBox="0 0 171.45 149.93"><defs><style>.cls-1{fill:#704142}</style></defs><path d="M160.92 115.25l-19.87-11.47a71.72 71.72 0 1 0-15.39 22.29l21.76 12.56a13.5 13.5 0 1 0 13.5-23.38zm-56.24-38.5l-5.35 5.35L75.44 106l-23.9-23.9-5.34-5.35a16.92 16.92 0 0 1 0-23.89 16.94 16.94 0 0 1 23.89 0l5.35 5.35 5.35-5.35a16.94 16.94 0 0 1 23.89 0 16.94 16.94 0 0 1 0 23.89z" class="cls-1"/></symbol><symbol id="twitter-icon" viewBox="0 0 186.32 165.85"><defs><style>.cls-1{fill:#fff}</style></defs><path d="M93.16 2.72a80.21 80.21 0 1 0 80.21 80.21A80.21 80.21 0 0 0 93.16 2.72zM133 62.47c.07.88.07 1.78.07 2.66 0 27.2-20.71 58.54-58.54 58.54a58.15 58.15 0 0 1-31.49-9.25 40 40 0 0 0 4.89.3 41.22 41.22 0 0 0 25.54-8.82 20.62 20.62 0 0 1-19.2-14.3 20.54 20.54 0 0 0 9.29-.35 20.57 20.57 0 0 1-16.51-20.16v-.26a20.53 20.53 0 0 0 9.34 2.57A20.6 20.6 0 0 1 50 45.93a58.45 58.45 0 0 0 42.4 21.5 20.58 20.58 0 0 1 35.05-18.75 41.14 41.14 0 0 0 13.06-5 20.64 20.64 0 0 1-9.05 11.37 40.71 40.71 0 0 0 11.81-3.24A41.76 41.76 0 0 1 133 62.47z" class="cls-1"/></symbol></svg>