<svg height="3.6in" viewBox="0 0 256 256" width="3.6in" xmlns="http://www.w3.org/2000/svg"><g fill="#d5ada6"><path d="m97.8 97.4a140.8 140.8 0 0 1 -20.9-31.5l-29.1 18.5-29.1 18.5a143 143 0 0 1 19.7 32.3c9.1 20.3 12.8 40 11.1 54l.3.4c12.2-.1 27.7 3.9 43.6 12.2 21 11 37.2 26.6 44.1 40.6l6.8-4.3-41.8-65.7a.5.5 0 0 1 -.2-.4l-12.9-4-2.4-.7a9.3 9.3 0 0 1 -6.2-9.8 6.1 6.1 0 0 1 8.2-5.2l2.5.8.3-2.6a6.2 6.2 0 0 1 8.2-5.2 9.1 9.1 0 0 1 6.2 9.7l-.3 2.6-1.9 13.3.3.3 41.8 65.8 6.8-4.4c-9.9-12.1-17.1-33.5-18.1-57.1-.8-17.9 2.1-33.7 7.4-44.7l-.2-.4c-13.4-4.4-29.7-16.1-44.2-33zm-93.87-4.785 69.826-44.313 7.475 11.779-69.826 44.313zm89.97-28.315a7.1 7.1 0 0 0 -4.7 2.3l-1.2-.6a10.5 10.5 0 0 0 1.2-5.3v-11.1c0-7 4.2-9.6 9.2-9.6s8 2.9 8 7.7c0 3.1-1.9 4.8-4.2 4.8a3.3 3.3 0 0 1 -3.5-3.3 3.4 3.4 0 0 1 3.6-3.5 3.1 3.1 0 0 1 1.9.6 4.1 4.1 0 0 0 -4.1-3.9c-2.4 0-4.1 1.6-4.1 5.9v4.3c0 5.9-2.2 8.5-4.6 10.9 2.3-1.7 4.4-3.4 6.8-3.4s3.7 3.2 6.2 3.2 3.1-2.8 3.9-6.9l1.4.4c-.5 4.8-2.3 9.6-7.9 9.6s-5.1-2.1-7.9-2.1z"/><path d="m125.2 57.1c0 5.6-3.7 9.3-9 9.3s-9.1-3.7-9.1-9.3 3.8-9.2 9.1-9.2 9 3.7 9 9.2zm-6.9 0c0-5.1-.6-7.2-2.1-7.2s-2.2 2.2-2.2 7.2.7 7.2 2.2 7.2 2.1-2 2.1-7.2zm24.5 2.9c2.3-.2 4.1-1.5 5.6-6.4l1.3.7c-1.5 6.2-4.9 7.4-7.6 7.5-1.4 2.7-3.7 4.6-6.9 4.6-5.2 0-7.8-3.2-7.8-9.5v-8.5h1.8c3.5 0 4.8 1.2 4.8 4.1-.1 0-.1 5.2-.1 5.7 0 3.7 1 5.8 3.3 5.8s2.3-1 3-2.5c-2.4-.8-4.1-3.7-4.1-8s1.9-5.6 3.8-5.6 3.6 1.6 3.6 7.1a15.9 15.9 0 0 1 -.7 5z"/><path d="m152.9 59.2c.5 3.6 2.1 4.9 4.7 4.9s5.9-2.7 7.2-7.3l1.4.3c-1.7 6.4-5.5 9.3-11.1 9.3s-9.4-2.9-9.4-9.3 4.6-9.2 8.9-9.2 7.3 1.7 7.3 5.6-3.7 5.8-7.8 5.8zm-.1-1.4c2.3-.1 3.5-2 3.5-4.6s-.7-3.4-1.5-3.4-2 2.3-2 6.9z"/><path d="m177.3 56.8c-.9 4.9-3.3 9.6-7.7 9.6s-5.4-1.5-5.4-5.7v-20.3h1.8c3.5 0 4.7 1.2 4.7 4.1v17c0 1.1.4 2 1.3 2s2.6-1.5 4-7.1z"/><path d="m181.4 65.5h-.2c-3.5 0-6.3-1.5-6.3-6.8v-10.3h1.9c3.4 0 4.7 1.5 4.7 4.4v8c0 1.9.3 3.2 1.6 3.2s1.7-1.1 1.7-3.2v-12.4h6.6v18.4c0 5.1-4.2 7.4-8.8 7.4s-6.9-.8-6.9-3.9 3.7-4.1 5.8-4.4zm3.4-.3-.4.2c-2.1 1.1-3.2 2.1-3.2 4.8s.5 2.5 1.8 2.5 1.8-1 1.8-2.9zm-74.7 34.2v-10.7c0-6.5 2.1-10 7.5-11.1l.6 1c-1.8 1-1.4 4.7-1.4 9.1v2.6c3.5-.2 5-2.7 5-7.4s-2.3-7-6.6-7c-6.8 0-11.3 4-11.4 8.3a2.6 2.6 0 0 1 2.3-1.2 2.8 2.8 0 0 1 2.9 3.1 3.2 3.2 0 0 1 -3.4 3.3 4.2 4.2 0 0 1 -4-4.5c0-6.2 5.4-11 14.7-11 5.8 0 12.2 2.1 12.2 9s-5.2 9.2-10.4 9.2h-1.3v7.3zm33.2-9.1c-.9 4.9-3.3 9.6-7.7 9.6s-5.4-1.5-5.4-5.7v-20.3h1.8c3.5 0 4.7 1.2 4.7 4.1v17c0 1.1.4 2 1.3 2s2.6-1.5 4-7z"/><path d="m157.9 95c0 1.1.3 2 1.2 2s3.3-3 4.3-7.1l1.2.4c-.9 4.7-3.1 9.6-7.9 9.6-2.5 0-4-1-4.8-2.8a5.1 5.1 0 0 1 -4.9 2.8c-3 0-6.8-2.3-6.8-9.2s4-9.3 6.8-9.3a4.8 4.8 0 0 1 4.8 3 2.9 2.9 0 0 1 3.2-2.5h2.9zm-6.4-4.3c0-4.3-.7-6.4-2.2-6.4s-2.1 2.2-2.1 6.4.7 6.3 2.1 6.3 2.2-2.1 2.2-6.3z"/><path d="m163.9 81.9c3.3 0 4.6.3 4.7 2.8a5.8 5.8 0 0 1 5.3-3.3c3.9 0 4.9 3.1 4.9 5.5s-.3 5.6-.3 7.6.4 2.5 1.6 2.5 2.9-3.1 3.8-7l1.3.3c-1.1 5.1-2.9 9.6-8 9.6s-5.4-2.4-5.4-5.4.2-4.4.2-6.7-.3-2.8-1.4-2.8-2 1.2-2 4.3v10.1h-6.5v-17.5z"/><path d="m184.6 81.9c3.3 0 4.5.3 4.6 2.8a6.1 6.1 0 0 1 5.4-3.3c3.8 0 4.8 3.1 4.8 5.5s-.3 5.6-.3 7.6.5 2.5 1.6 2.5 2.9-3.1 3.9-7l1.3.3c-1.1 5.1-3 9.6-8.1 9.6s-5.3-2.4-5.3-5.4.2-4.4.2-6.7-.3-2.8-1.4-2.8-2 1.2-2.1 4.3v10.1h-6.5v-17.5z"/><path d="m209.8 92.8c.5 3.5 2.1 4.8 4.7 4.8s5.9-2.7 7.1-7.3l1.5.3c-1.7 6.5-5.5 9.3-11.1 9.3s-9.4-2.8-9.4-9.3 4.6-9.2 8.9-9.2 7.3 1.7 7.3 5.6-3.7 5.8-7.8 5.8zm-.1-1.5c2.3 0 3.5-2 3.5-4.6s-.7-3.3-1.5-3.3-2 2.3-2 6.8z"/><path d="m222.9 81.9c2.2 0 3.4.7 4.1 1.7a4.8 4.8 0 0 1 4.2-2.2c3.1 0 4.7 2.2 4.7 5s-1.7 4.1-3.6 4.1a3 3 0 0 1 -3-3.1 2.9 2.9 0 0 1 2.8-2.9 2.2 2.2 0 0 1 2 1.1 2.7 2.7 0 0 0 -2.8-2.5c-1.9 0-3.6 1-3.7 5v11.3h-6.5v-17.5zm11.7 12c0-2.6 1.5-4.2 3.3-4.3a57.2 57.2 0 0 0 1.7-5.9c.5-2.1 1.4-2.5 3.3-2.5h3.9c1.4 5.4 4.3 7.7 4.3 12.2s-3.2 6.5-9 6.5-7.5-3.5-7.5-6zm5.3-3.8a3.1 3.1 0 0 1 1.6 3 3.3 3.3 0 0 1 -3.4 3.5h-.7a3.8 3.8 0 0 0 3.1 1.4c2.1 0 3.7-1.1 3.7-4s-1.7-5.5-2.5-10.5a56.9 56.9 0 0 1 -1.8 6.6z"/></g></svg>