<svg xmlns="http://www.w3.org/2000/svg" width="86.4" height="86.4" viewBox="0 0 64 64"><path fill="#d5ada6" d="M37.3 16.4a47.9 47.9 0 0 1-6.6-10l-9.1 5.9-9.2 5.8a47.7 47.7 0 0 1 6.2 10.2c2.9 6.4 4 12.6 3.5 17v.2c3.8-.1 8.7 1.2 13.7 3.8 6.6 3.5 11.8 8.4 13.9 12.8l2.3-1.3L38.8 40h-.1l-4-1.2-.8-.3a2.9 2.9 0 0 1-1.9-3 1.9 1.9 0 0 1 2.6-1.7l.7.2v-.8a1.9 1.9 0 0 1 2.7-1.7 2.9 2.9 0 0 1 2 3.1v.8l-.6 4.2h.1l13.1 20.8 2.1-1.4c-3.1-3.8-5.4-10.5-5.7-18a30.9 30.9 0 0 1 2.3-14.1c-4.3-1.5-9.4-5.2-14-10.5zM7.745 14.835L29.782.85l2.357 3.715L10.102 18.55z"/></svg>