<svg xmlns="http://www.w3.org/2000/svg" width="3.6in" height="3.6in" viewBox="0 0 256 256"><path fill="#d5ada6" d="M153 66.1a182 182 0 0 1-27-40.8L88.4 49.2l-37.7 24a178 178 0 0 1 25.5 41.7c11.8 26.3 16.6 51.7 14.4 69.8l.4.5c15.7-.2 35.7 5 56.3 15.8 27.1 14.1 48.2 34.3 57 52.5l8.7-5.6-54-84.9-.2-.5-16.6-5.2-3.2-1a12 12 0 0 1-8-12.5 7.9 7.9 0 0 1 10.6-6.8l3.2 1 .5-3.3a7.9 7.9 0 0 1 10.6-6.7 12 12 0 0 1 8 12.5l-.5 3.3-2.3 17.3.3.4 54 84.9 8.8-5.6c-12.8-15.7-22.1-43.3-23.4-73.9-1-23.1 2.8-43.5 9.6-57.6l-.3-.6c-17.3-5.7-38.3-20.8-57.1-42.6zM31.862 59.897l90.174-57.226 9.661 15.223L41.523 75.12z"/></svg>