<svg xmlns="http://www.w3.org/2000/svg" width="38.4" height="38.4" viewBox="0 0 32 32"><path fill="#d5ada6" d="M18.5 8.3a23.8 23.8 0 0 1-3.4-5.1l-4.6 3-4.7 2.9A21.9 21.9 0 0 1 9 14.3a19.3 19.3 0 0 1 1.8 8.7 16.7 16.7 0 0 1 7 2c3.3 1.7 6 4.2 7 6.5l1.1-.7-6.7-10.5-2.1-.6h-.3a1.4 1.4 0 0 1-1-1.6.9.9 0 0 1 1.3-.8h.4v-.4a1 1 0 0 1 1.3-.9 1.4 1.4 0 0 1 1 1.6v.4l-.3 2 6.7 10.5 1.1-.7c-1.6-1.9-2.7-5.3-2.9-9.1a16.7 16.7 0 0 1 1.2-7.2 16.7 16.7 0 0 1-7.1-5.2zM3.47 7.501L14.613.428l1.2 1.891L4.67 9.392z"/></svg>