<svg id="Layer_1" data-name="Layer 1" xmlns="http://www.w3.org/2000/svg" width="0.9in" height="0.9in" viewBox="0 0 64 64"><title>logo-64</title><path d="M37.3,16.4a47.9,47.9,0,0,1-6.6-10l-9.1,5.9-9.2,5.8a47.7,47.7,0,0,1,6.2,10.2c2.9,6.4,4,12.6,3.5,17v.2c3.8-.1,8.7,1.2,13.7,3.8,6.6,3.5,11.8,8.4,13.9,12.8L52,60.8h0L38.8,40h-.1l-4-1.2-.8-.3a2.9,2.9,0,0,1-1.9-3,1.9,1.9,0,0,1,2.6-1.7l.7.2v-.8A1.9,1.9,0,0,1,38,31.5a2.9,2.9,0,0,1,2,3.1v.8l-.6,4.2h.1L52.6,60.4h0L54.7,59c-3.1-3.8-5.4-10.5-5.7-18a30.9,30.9,0,0,1,2.3-14.1h0C47,25.4,41.9,21.7,37.3,16.4Z" fill="#231f20"/><rect x="6.9" y="7.5" width="26.1" height="4.4" transform="translate(-2.1 12.2) rotate(-32.4)" fill="#231f20"/></svg>