<svg id="Layer_1" data-name="Layer 1" xmlns="http://www.w3.org/2000/svg" width="0.2in" height="0.2in" viewBox="0 0 16 16"><title>logo-16</title><path d="M9.2,4.2A9.2,9.2,0,0,1,7.5,1.7L5.2,3.2,2.9,4.6A12.7,12.7,0,0,1,4.4,7.2a7.4,7.4,0,0,1,.9,4.3h0a7.5,7.5,0,0,1,3.5,1,7.4,7.4,0,0,1,3.5,3.2l.5-.3h0L9.5,10.1h0l-1-.3H8.3A.8.8,0,0,1,7.8,9c.1-.4.3-.6.7-.5h.2V8.4A.4.4,0,0,1,9.3,8a.6.6,0,0,1,.5.8V10h0L13,15.3h0l.5-.4a8.5,8.5,0,0,1-1.4-4.5,7.8,7.8,0,0,1,.6-3.6h0A8,8,0,0,1,9.2,4.2Z" fill="#231f20"/><rect x="1.5" y="2" width="6.6" height="1.11" transform="translate(-0.6 3) rotate(-32.4)" fill="#231f20"/></svg>