<svg id="Layer_1" data-name="Layer 1" xmlns="http://www.w3.org/2000/svg" width="0.4in" height="0.4in" viewBox="0 0 32 32"><title>logo-32</title><path d="M18.5,8.3a23.8,23.8,0,0,1-3.4-5.1l-4.6,3L5.8,9.1A21.9,21.9,0,0,1,9,14.3,19.3,19.3,0,0,1,10.8,23h0a16.7,16.7,0,0,1,7,2c3.3,1.7,6,4.2,7,6.5l1.1-.7h0L19.2,20.3h0l-2.1-.6h-.3a1.4,1.4,0,0,1-1-1.6.9.9,0,0,1,1.3-.8h.4v-.4a1,1,0,0,1,1.3-.9,1.4,1.4,0,0,1,1,1.6v.4L19.5,20h0l6.7,10.5h0l1.1-.7c-1.6-1.9-2.7-5.3-2.9-9.1a16.7,16.7,0,0,1,1.2-7.2h0A16.7,16.7,0,0,1,18.5,8.3Z" fill="#231f20"/><rect x="3" y="3.8" width="13.2" height="2.24" transform="translate(-1.1 5.9) rotate(-32.4)" fill="#231f20"/></svg>