<svg xmlns="http://www.w3.org/2000/svg" id="Layer_1" width="256" height="256" viewBox="0 0 256 256"><defs><style>.cls-1{fill:#704142}</style></defs><path d="M115.35 73.85A176.38 176.38 0 0 1 75 49.16L51.82 85.57 28.66 122a176.78 176.78 0 0 1 39.46 26.1c21.06 18.2 35.69 38.56 41.21 55.25l.54.34c13.69-6.64 33.4-10.28 55.78-9.31 29.59 1.29 56.31 10.31 71.49 22.64l5.4-8.49-82.17-52.28a1.74 1.74 0 0 1-.36-.3l-16.71 2.25-3.18.43a11.58 11.58 0 0 1-12.12-7.74 7.72 7.72 0 0 1 6.53-10.27l3.18-.43-1-3.06a7.73 7.73 0 0 1 6.54-10.28 11.61 11.61 0 0 1 12.16 7.74l1 3.07 5 16.09a2 2 0 0 1 .42.2L244 206.23l5.4-8.49c-17.6-8.53-37.09-28.91-50.8-55.16-10.36-19.86-15.42-39.25-15.2-54.47l-.54-.35c-17.47 2.08-42.11-2.55-67.51-13.91z" class="cls-1"/><path d="M-9.97 70.41H93.38v17.45H-9.97z" class="cls-1" transform="rotate(-57.54 41.694 79.13)"/></svg>