<svg xmlns="http://www.w3.org/2000/svg" id="Layer_1" width="2.6in" height="2.3in" viewBox="0 0 186.3 165.9"><path fill="#d5ada6" d="M93.2 2.7a80.2 80.2 0 1 0 80.2 80.2A80.3 80.3 0 0 0 93.2 2.7zM133 62.5a23.5 23.5 0 0 1 .1 2.6c0 27.2-20.7 58.6-58.6 58.6a57.4 57.4 0 0 1-31.4-9.3 39.1 39.1 0 0 0 4.9.3 41.5 41.5 0 0 0 25.5-8.8 20.6 20.6 0 0 1-19.2-14.3 20.9 20.9 0 0 0 9.3-.3 20.7 20.7 0 0 1-16.5-20.2v-.3a20 20 0 0 0 9.3 2.6A20.7 20.7 0 0 1 50 45.9a58.3 58.3 0 0 0 42.4 21.5 20.6 20.6 0 0 1 35.1-18.7 40.3 40.3 0 0 0 13-5 20.4 20.4 0 0 1-9 11.4 40.7 40.7 0 0 0 11.8-3.3A42 42 0 0 1 133 62.5z"/></svg>